<?xml version="1.0" ?><!DOCTYPE svg  PUBLIC '-//W3C//DTD SVG 1.1//EN'  'http://www.w3.org/Graphics/SVG/1.1/DTD/svg11.dtd'><svg style="enable-background:new 0 0 512 512;" version="1.1" viewBox="0 0 512 512" xml:space="preserve" xmlns="http://www.w3.org/2000/svg" xmlns:xlink="http://www.w3.org/1999/xlink"><style type="text/css">
	.st0{display:none;}
	.st1{display:inline;fill:#F3AD2E;}
	.st2{display:inline;}
	.st3{fill:#F3AD2E;}
	.st4{clip-path:url(#SVGID_2_);}
</style><g><g class="st0" id="Layer_1"><path class="st1" d="M256,28C130.1,28,28,130.1,28,256s102.1,228,228,228s228-102.1,228-228S381.9,28,256,28z M256,122     c36.7,0,66.5,29.8,66.5,66.5S292.7,255,256,255s-66.5-29.8-66.5-66.5S219.3,122,256,122z M363.5,351.2     c0,21.3-17.4,38.7-38.7,38.7H187.2c-21.3,0-38.7-17.4-38.7-38.7v-82c0-21.3,17.4-38.7,38.7-38.7h3.2c13.5,22,37.8,36.7,65.5,36.7     s52-14.7,65.5-36.7h3.2c21.3,0,38.7,17.4,38.7,38.7V351.2z"/></g><g class="st0" id="Layer_2"><g class="st2"><path class="st3" d="M366.8,29h-279c-27.5,0-50,22.5-50,50v354c0,27.5,22.5,50,50,50h279c27.5,0,50-22.5,50-50V79      C416.8,51.5,394.3,29,366.8,29z M227.3,122c36.7,0,66.5,29.8,66.5,66.5S264,255,227.3,255s-66.5-29.8-66.5-66.5      S190.5,122,227.3,122z M334.8,351.2c0,21.3-17.4,38.7-38.7,38.7H158.5c-21.3,0-38.7-17.4-38.7-38.7v-82      c0-21.3,17.4-38.7,38.7-38.7h3.2c13.5,22,37.8,36.7,65.5,36.7s52-14.7,65.5-36.7h3.2c21.3,0,38.7,17.4,38.7,38.7V351.2z"/><g><defs><rect height="275" id="SVGID_1_" width="61.5" x="412.8" y="113"/></defs><clipPath id="SVGID_2_"><use style="overflow:visible;" xlink:href="#SVGID_1_"/></clipPath><g class="st4"><path class="st3" d="M464.3,120h-72c-5.5,0-10,4.5-10,10v46c0,5.5,4.5,10,10,10h72c5.5,0,10-4.5,10-10v-46        C474.3,124.5,469.8,120,464.3,120z"/><path class="st3" d="M436.8,318h-72c-5.5,0-10,4.5-10,10v46c0,5.5,4.5,10,10,10h72c5.5,0,10-4.5,10-10v-46        C446.8,322.5,442.3,318,436.8,318z"/><path class="st3" d="M453.8,219h-72c-5.5,0-10,4.5-10,10v46c0,5.5,4.5,10,10,10h72c5.5,0,10-4.5,10-10v-46        C463.8,223.5,459.3,219,453.8,219z"/></g></g></g></g><g class="st0" id="Layer_3"><g class="st2"><path class="st3" d="M475,107h-20.5c-3.2,22-22.1,39-45,39s-41.9-17-45-39H147.5c-3.2,22-22.1,39-45,39s-41.9-17-45-39H37      c-5.5,0-10,4.5-10,10v322c0,5.5,4.5,10,10,10h438c5.5,0,10-4.5,10-10V117C485,111.5,480.5,107,475,107z M156,175      c28.2,0,51.1,22.9,51.1,51.1s-22.9,51.1-51.1,51.1s-51.1-22.9-51.1-51.1S127.8,175,156,175z M238.6,351.2      c0,16.4-13.4,29.8-29.8,29.8H103.1c-16.4,0-29.8-13.4-29.8-29.8v-63c0-16.4,13.4-29.8,29.8-29.8h2.5      c10.4,16.9,29,28.2,50.4,28.2s40-11.3,50.4-28.2h2.5c16.4,0,29.8,13.4,29.8,29.8V351.2z M438,348c0,5.5-4.5,10-10,10H273      c-5.5,0-10-4.5-10-10v-7c0-5.5,4.5-10,10-10h155c5.5,0,10,4.5,10,10V348z M438,283c0,5.5-4.5,10-10,10H273c-5.5,0-10-4.5-10-10      v-7c0-5.5,4.5-10,10-10h155c5.5,0,10,4.5,10,10V283z M438,218c0,5.5-4.5,10-10,10H273c-5.5,0-10-4.5-10-10v-7      c0-5.5,4.5-10,10-10h155c5.5,0,10,4.5,10,10V218z"/><path class="st3" d="M102.5,63C82.3,63,66,79.3,66,99.5S82.3,136,102.5,136S139,119.7,139,99.5S122.7,63,102.5,63z M102.5,123      c-13,0-23.5-10.5-23.5-23.5S89.5,76,102.5,76S126,86.5,126,99.5S115.5,123,102.5,123z"/><path class="st3" d="M410.5,63C390.3,63,374,79.3,374,99.5s16.3,36.5,36.5,36.5S447,119.7,447,99.5S430.7,63,410.5,63z       M410.5,123c-13,0-23.5-10.5-23.5-23.5S397.5,76,410.5,76S434,86.5,434,99.5S423.5,123,410.5,123z"/></g></g><g class="st0" id="Layer_4"><g class="st2"><path class="st3" d="M357.4,182.7h-64c-4.1,0-7.5,3.4-7.5,7.5v0c0,4.1,3.4,7.5,7.5,7.5h64c4.1,0,7.5-3.4,7.5-7.5v0      C364.9,186,361.5,182.7,357.4,182.7z"/><path class="st3" d="M357.4,155.3h-64c-4.1,0-7.5,3.4-7.5,7.5s3.4,7.5,7.5,7.5h64c4.1,0,7.5-3.4,7.5-7.5      S361.5,155.3,357.4,155.3z"/><path class="st3" d="M256,28C130.1,28,28,130.1,28,256s102.1,228,228,228s228-102.1,228-228S381.9,28,256,28z M197,194      c28.5,0,51.6,23.1,51.6,51.6c0,28.5-23.1,51.6-51.6,51.6s-51.6-23.1-51.6-51.6C145.4,217.1,168.5,194,197,194z M280.5,371.9      c0,16.5-13.5,30.1-30.1,30.1H143.6c-16.5,0-30.1-13.5-30.1-30.1v-63.7c0-16.5,13.5-30.1,30.1-30.1h2.5      c10.5,17.1,29.3,28.5,50.9,28.5s40.4-11.4,50.9-28.5h2.5c16.5,0,30.1,13.5,30.1,30.1V371.9z M405.4,183.7      c0,17.9-12.7,32.6-28.2,32.6h-62.1L255.2,240l17.9-23.8h0.4c-15.5,0-28.2-14.7-28.2-32.6v-41.3c0-17.9,12.7-32.6,28.2-32.6      h103.7c15.5,0,28.2,14.7,28.2,32.6V183.7z"/><path class="st3" d="M357.4,128h-64c-4.1,0-7.5,3.4-7.5,7.5s3.4,7.5,7.5,7.5h64c4.1,0,7.5-3.4,7.5-7.5S361.5,128,357.4,128z"/></g></g><g id="Layer_5"><path class="st3" d="M255,27C129.1,27,27,129.1,27,255s102.1,228,228,228s228-102.1,228-228S380.9,27,255,27z M208.6,146.8     c34,0,61.6,27.6,61.6,61.6c0,34-27.6,61.6-61.6,61.6S147,242.4,147,208.4C147,174.4,174.6,146.8,208.6,146.8z M308.1,359.1     c0,19.7-16.1,35.9-35.9,35.9H144.9c-19.7,0-35.9-16.1-35.9-35.9v-75.9c0-19.7,16.1-35.9,35.9-35.9h3c12.5,20.4,35,34,60.7,34     c25.7,0,48.2-13.6,60.7-34h3c19.7,0,35.9,16.1,35.9,35.9V359.1z M378.4,205.9V257h-23.9v-51.1h-51.1v-23.9h51.1V131h23.9v51.1     h51.1v23.9H378.4z"/></g></g></svg>